<svg width="30" height="30" viewBox="0 0 30 30" fill="none" xmlns="http://www.w3.org/2000/svg">
<path d="M12.6387 21.7266C12.4238 21.7266 12.2513 21.6647 12.1211 21.541C11.9909 21.4108 11.9225 21.2415 11.916 21.0332L11.623 10.9551C11.6165 10.7467 11.6784 10.5807 11.8086 10.457C11.9388 10.3268 12.1113 10.2617 12.3262 10.2617C12.541 10.2617 12.7135 10.3268 12.8438 10.457C12.9805 10.5807 13.0521 10.7435 13.0586 10.9453L13.3516 21.0234C13.3516 21.2318 13.2865 21.401 13.1562 21.5312C13.026 21.6615 12.8535 21.7266 12.6387 21.7266ZM15.5 21.7266C15.2852 21.7266 15.1094 21.6647 14.9727 21.541C14.8424 21.4108 14.7773 21.2415 14.7773 21.0332V10.9551C14.7773 10.7467 14.8424 10.5807 14.9727 10.457C15.1094 10.3268 15.2852 10.2617 15.5 10.2617C15.7214 10.2617 15.8971 10.3268 16.0273 10.457C16.1641 10.5807 16.2324 10.7467 16.2324 10.9551V21.0332C16.2324 21.2415 16.1641 21.4108 16.0273 21.541C15.8971 21.6647 15.7214 21.7266 15.5 21.7266ZM18.3711 21.7266C18.1497 21.7266 17.974 21.6615 17.8438 21.5312C17.7135 21.401 17.6517 21.2318 17.6582 21.0234L17.9512 10.9551C17.9577 10.7467 18.026 10.5807 18.1562 10.457C18.2865 10.3268 18.459 10.2617 18.6738 10.2617C18.8952 10.2617 19.0677 10.3268 19.1914 10.457C19.3216 10.5807 19.3835 10.7467 19.377 10.9551L19.0938 21.0332C19.0872 21.2415 19.0156 21.4108 18.8789 21.541C18.7487 21.6647 18.5794 21.7266 18.3711 21.7266ZM10.9492 7.41016V5.33984C10.9492 4.57161 11.1836 3.97266 11.6523 3.54297C12.1276 3.11328 12.7884 2.89844 13.6348 2.89844H17.3555C18.2018 2.89844 18.8594 3.11328 19.3281 3.54297C19.8034 3.97266 20.041 4.57161 20.041 5.33984V7.41016H18.0488V5.42773C18.0488 5.19987 17.9707 5.01758 17.8145 4.88086C17.6647 4.73763 17.4629 4.66602 17.209 4.66602H13.7812C13.5273 4.66602 13.3223 4.73763 13.166 4.88086C13.0163 5.01758 12.9414 5.19987 12.9414 5.42773V7.41016H10.9492ZM6.71094 8.68945C6.44401 8.68945 6.21615 8.59831 6.02734 8.41602C5.83854 8.23372 5.74414 8.00586 5.74414 7.73242C5.74414 7.46549 5.83854 7.24089 6.02734 7.05859C6.21615 6.8763 6.44401 6.78516 6.71094 6.78516H24.2988C24.5658 6.78516 24.7904 6.8763 24.9727 7.05859C25.1615 7.23438 25.2559 7.45898 25.2559 7.73242C25.2559 8.00586 25.1647 8.23372 24.9824 8.41602C24.8001 8.59831 24.5723 8.68945 24.2988 8.68945H6.71094ZM11.0078 25.1543C10.2201 25.1543 9.5918 24.9362 9.12305 24.5C8.6543 24.0638 8.40365 23.4518 8.37109 22.6641L7.70703 8.49414H9.66992L10.3242 22.2734C10.3372 22.5599 10.4251 22.791 10.5879 22.9668C10.7572 23.1426 10.9753 23.2305 11.2422 23.2305H19.748C20.0215 23.2305 20.2396 23.1426 20.4023 22.9668C20.5716 22.7975 20.6628 22.5664 20.6758 22.2734L21.3105 8.49414H23.3027L22.6387 22.6543C22.6061 23.4486 22.3522 24.0638 21.877 24.5C21.4082 24.9362 20.7832 25.1543 20.002 25.1543H11.0078Z" fill="white"/>
</svg>
